<?xml version="1.0" standalone="no"?>
<svg  width="800.000000pt" height="800.000000pt" viewBox="0 0 800.000000 800.000000"
 preserveAspectRatio="xMidYMid meet">
<metadata>
Created by potrace 1.16, written by Peter Selinger 2001-2019
</metadata>
<g transform="translate(0.000000,800.000000) scale(0.100000,-0.100000)"
fill="#000000" stroke="none">
<path d="M4286 5854 c-92 -17 -205 -67 -258 -113 -36 -31 -37 -31 -48 -12 -14
28 -82 66 -171 97 -90 32 -220 42 -311 25 -77 -15 -190 -68 -240 -113 l-38
-33 -2 -706 -3 -705 60 44 c159 117 301 146 480 98 61 -16 161 -66 202 -100
17 -14 36 -26 42 -26 6 0 31 15 55 34 99 75 208 109 350 109 116 -1 197 -26
300 -93 l76 -49 2 692 3 692 -35 35 c-48 47 -148 95 -251 120 -96 23 -106 23
-213 4z m178 -159 c93 -24 156 -55 161 -79 3 -11 4 -250 2 -531 -2 -447 -4
-510 -17 -507 -8 2 -65 11 -127 20 -94 14 -124 14 -196 4 -88 -13 -207 -49
-256 -78 -29 -17 -31 -17 -83 8 -75 38 -180 66 -273 73 -73 6 -149 -2 -277
-31 l-28 -6 0 525 0 526 27 20 c48 39 155 64 248 59 110 -6 183 -41 284 -137
l74 -71 67 66 c38 37 81 75 97 85 45 30 144 60 223 68 9 0 42 -6 74 -14z"/>
<path d="M5925 4248 c-23 -152 -117 -537 -158 -643 -47 -122 -110 -255 -135
-285 l-21 -25 -35 34 c-63 61 -122 251 -176 566 -10 61 -23 122 -29 137 -12
32 -59 45 -100 28 l-28 -11 -11 -187 c-10 -175 -55 -521 -103 -796 -33 -187
-26 -403 14 -453 14 -19 51 -16 80 7 35 28 43 71 21 112 -61 117 -58 99 -40
206 8 53 31 203 51 332 19 129 39 259 45 289 5 30 10 73 10 95 0 51 16 82 24
45 27 -131 89 -358 108 -401 29 -62 79 -123 118 -143 33 -17 98 -5 118 22 24
32 119 226 136 280 19 58 39 81 31 36 -12 -68 -36 -351 -41 -493 -7 -190 9
-312 56 -406 28 -58 34 -64 81 -79 46 -16 52 -16 74 -1 39 26 33 61 -15 86
-45 23 -61 49 -86 140 -14 51 -17 100 -16 230 0 91 6 194 11 230 13 83 36 280
56 485 9 88 25 212 35 275 17 103 23 178 21 248 -1 26 -52 82 -74 82 -10 0
-17 -14 -22 -42z"/>
<path d="M3223 4138 c-4 -7 -8 -116 -9 -243 -2 -354 -46 -678 -135 -977 l-20
-68 -63 0 c-71 0 -84 -9 -93 -63 -8 -50 10 -77 52 -77 18 0 36 -3 38 -7 5 -8
-17 -75 -64 -198 -20 -54 -21 -63 -8 -90 8 -16 27 -36 42 -45 26 -14 29 -14
46 6 10 12 34 84 55 160 20 77 43 149 51 161 10 15 32 25 72 32 32 6 108 23
170 38 130 31 132 30 170 -55 37 -84 89 -160 122 -177 47 -24 120 -24 137 0
15 20 19 73 6 91 -4 6 -28 13 -54 16 -27 3 -55 11 -64 19 -31 26 -74 127 -74
174 0 36 -5 51 -24 68 -39 37 -65 172 -106 556 -11 100 -27 182 -86 431 -29
125 -40 153 -88 217 -31 43 -58 54 -73 31z m115 -478 c28 -104 39 -174 53
-325 6 -71 21 -195 34 -275 13 -80 21 -148 16 -153 -10 -10 -193 -47 -232 -47
-17 0 -29 5 -29 13 0 6 11 66 25 132 45 214 95 578 95 695 1 76 9 68 38 -40z"/>
<path d="M662 4000 c-116 -16 -240 -61 -434 -155 -201 -98 -228 -114 -228
-134 0 -27 31 -71 51 -71 11 0 71 31 133 69 101 61 250 131 279 131 7 0 8 -65
3 -202 -9 -255 -28 -431 -52 -481 -15 -32 -16 -42 -6 -70 17 -47 15 -202 -5
-322 -12 -79 -14 -120 -7 -172 l9 -68 39 2 c21 2 44 7 51 13 8 7 14 68 19 187
8 225 14 273 34 273 8 0 85 -36 171 -81 506 -262 672 -255 811 32 53 109 52
169 -2 169 -13 0 -28 -21 -52 -72 -35 -79 -95 -143 -155 -168 -32 -13 -35 -12
-57 13 -33 38 -44 88 -44 199 0 70 4 100 14 111 8 8 45 17 82 21 38 4 95 18
129 31 33 13 72 27 88 31 48 11 75 76 43 103 -11 9 -35 8 -103 -3 -48 -8 -119
-16 -157 -18 l-69 -3 2 65 c1 35 5 68 7 72 7 12 156 66 224 81 36 9 99 19 140
23 87 8 110 17 110 44 0 29 -36 35 -195 35 -181 -1 -222 -11 -315 -83 l-75
-57 4 -81 c2 -52 -3 -105 -14 -148 -13 -52 -16 -103 -13 -247 l3 -181 -29 6
c-50 10 -421 193 -471 232 -20 15 -19 16 15 46 19 16 66 50 103 75 76 51 245
202 296 266 18 23 52 80 74 126 87 179 54 279 -113 346 -53 21 -238 29 -338
15z m298 -120 c68 -26 110 -65 110 -99 0 -94 -193 -314 -386 -442 -58 -38
-112 -69 -120 -69 -17 0 -18 51 -5 220 5 63 13 172 16 241 4 70 11 132 15 139
27 44 268 51 370 10z"/>
<path d="M1972 3803 c-5 -10 -13 -34 -17 -53 -4 -19 -29 -100 -55 -180 -42
-130 -66 -189 -171 -419 -16 -35 -49 -94 -74 -130 -53 -81 -65 -110 -65 -161
0 -41 24 -66 52 -55 12 5 85 119 117 183 9 17 20 22 49 22 20 0 80 9 132 20
52 11 114 20 136 20 41 0 42 -1 67 -59 14 -32 38 -68 54 -80 24 -20 35 -22 83
-16 63 8 100 27 100 54 0 26 -20 40 -77 54 -58 14 -67 38 -29 74 14 13 26 33
26 43 0 16 -7 20 -37 20 -21 0 -43 4 -49 8 -16 10 -30 60 -54 197 -12 66 -32
174 -45 240 -13 66 -26 139 -30 162 -8 49 -17 59 -67 68 -29 6 -38 3 -46 -12z
m62 -365 c31 -142 56 -290 49 -300 -7 -12 -231 -10 -238 2 -9 14 8 62 77 224
32 77 62 152 65 168 3 15 9 28 13 28 3 0 19 -55 34 -122z"/>
<path d="M2645 3755 c-5 -2 -45 -7 -88 -10 -60 -5 -84 -12 -105 -29 -15 -13
-44 -29 -64 -35 -62 -20 -88 -47 -88 -91 0 -55 18 -66 77 -46 25 9 51 16 56
16 6 0 7 -92 2 -244 -7 -233 -6 -245 13 -290 25 -56 86 -133 113 -141 32 -10
117 45 200 130 150 154 206 245 235 384 13 63 12 75 -2 118 -9 26 -23 61 -31
76 -21 41 -82 106 -117 124 -60 31 -164 51 -201 38z m138 -136 c62 -32 106
-81 123 -133 16 -49 16 -56 0 -103 -29 -87 -171 -274 -245 -323 -66 -44 -94
-41 -121 16 -20 41 -22 56 -16 142 3 54 9 161 12 240 4 83 11 145 18 149 34
22 195 30 229 12z"/>
<path d="M4565 3743 c-70 -10 -106 -20 -121 -34 -11 -10 -41 -26 -67 -35 -53
-18 -80 -56 -75 -102 3 -25 7 -27 43 -26 22 1 53 5 69 9 l29 8 -8 -249 c-6
-219 -5 -255 9 -289 20 -47 102 -145 122 -145 65 0 244 160 344 308 55 82 92
185 94 265 1 63 -34 145 -90 206 -43 48 -78 68 -149 87 -59 16 -69 16 -200 -3z
m248 -144 c92 -61 121 -126 94 -212 -44 -138 -236 -357 -313 -357 -29 0 -61
41 -70 89 -4 20 0 125 10 233 10 108 15 205 12 215 -3 10 -2 24 2 30 11 17 75
31 153 32 58 1 71 -3 112 -30z"/>
<path d="M4145 3663 c3 -32 10 -87 15 -123 42 -304 34 -582 -18 -614 -28 -17
-134 121 -198 259 -40 88 -79 229 -99 364 -8 57 -20 110 -26 117 -15 18 -63
18 -78 0 -6 -7 -18 -87 -26 -177 -8 -90 -29 -234 -46 -319 -40 -192 -46 -370
-15 -432 21 -44 39 -47 96 -18 46 23 49 39 18 83 -20 28 -23 44 -23 127 0 91
31 290 46 290 3 0 34 -55 67 -122 34 -68 81 -149 106 -182 40 -53 145 -136
172 -136 23 0 102 81 119 122 26 63 31 219 12 379 -29 245 -29 260 -7 304 21
41 25 72 12 91 -17 24 -59 44 -95 44 l-38 0 6 -57z"/>
<path d="M7842 3664 c-113 -37 -240 -62 -377 -75 -101 -9 -275 -43 -305 -59
-30 -16 -28 -84 3 -104 20 -14 31 -14 104 1 45 10 85 14 89 10 4 -4 11 -96 15
-204 7 -165 12 -207 29 -253 23 -59 46 -90 65 -90 7 0 33 19 58 43 48 44 65
92 53 143 -6 22 -11 25 -44 22 l-37 -3 -6 162 c-4 90 -9 169 -12 177 -4 9 -3
17 1 20 4 2 63 14 132 25 69 12 149 26 179 31 30 6 74 10 97 10 49 0 62 10 88
69 19 40 19 42 0 76 -10 19 -21 35 -24 34 -3 -1 -51 -16 -108 -35z"/>
<path d="M6345 3679 c-76 -11 -93 -19 -177 -81 l-68 -51 0 -103 c0 -56 -5
-115 -11 -131 -6 -15 -13 -103 -16 -194 -6 -182 4 -242 50 -310 32 -47 97 -82
139 -74 48 9 146 83 184 137 50 73 90 183 78 216 -12 35 -46 41 -66 10 -8 -13
-22 -44 -32 -70 -19 -51 -84 -118 -140 -145 -32 -15 -37 -15 -60 0 -34 23 -47
77 -48 202 -2 119 5 135 61 135 66 0 267 67 288 97 8 10 13 29 11 43 -4 31
-34 36 -133 21 -38 -5 -100 -13 -137 -17 l-68 -6 0 56 c0 32 4 66 10 76 10 18
123 67 210 90 24 7 92 17 150 24 l105 11 0 30 c0 28 -3 30 -50 37 -68 9 -207
7 -280 -3z"/>
<path d="M6895 3680 c-76 -12 -95 -21 -177 -81 l-66 -50 -6 -127 c-4 -70 -8
-147 -10 -172 -2 -25 -7 -83 -11 -130 -9 -111 7 -236 39 -298 21 -41 33 -53
77 -71 61 -27 76 -24 156 28 73 47 104 86 149 188 37 85 43 133 19 153 -30 25
-61 -2 -85 -74 -22 -68 -73 -126 -139 -161 -74 -38 -111 25 -114 194 -1 76 2
114 10 122 7 7 40 16 74 20 33 4 106 22 161 40 107 35 127 52 114 103 -7 29
-35 33 -122 17 -27 -5 -86 -12 -131 -16 l-83 -7 0 66 c0 64 1 67 31 85 60 37
217 81 327 93 59 6 113 16 120 21 18 14 15 44 -5 52 -30 11 -264 15 -328 5z"/>
</g>
</svg>